<?xml version="1.0" encoding="utf-8"?>
<!-- Generator: Adobe Illustrator 27.5.0, SVG Export Plug-In . SVG Version: 6.00 Build 0)  -->
<svg version="1.1" id="Layer_1" xmlns="http://www.w3.org/2000/svg" xmlns:xlink="http://www.w3.org/1999/xlink" x="0px" y="0px"
	 viewBox="-24.506 -92.425 83.604 68.625" style="enable-background:new -24.506 -92.425 83.604 68.625;" xml:space="preserve">
<rect x="-24.506" y="-92.425" style="fill:#F5F5F5;" width="83.604" height="68.625"/>
<g>
	<path style="fill:#848181;" d="M3.895-41.959c0.133,0,0.239-0.031,0.325-0.086c0.102-0.068,0.153-0.167,0.153-0.298
		c0-0.154-0.106-0.268-0.32-0.327c-0.006-0.001-0.019-0.004-0.031-0.01c-0.014-0.003-0.032-0.008-0.053-0.013
		c-0.266-0.074-0.436-0.138-0.514-0.2c-0.087-0.073-0.131-0.173-0.131-0.295c0-0.149,0.06-0.261,0.182-0.345
		c0.103-0.069,0.227-0.103,0.375-0.103c0.147,0,0.273,0.037,0.372,0.127c0.102,0.081,0.159,0.207,0.176,0.358H4.33
		c-0.034-0.263-0.186-0.396-0.464-0.396c-0.116,0-0.212,0.025-0.291,0.08c-0.1,0.062-0.149,0.146-0.149,0.263
		c0,0.167,0.168,0.299,0.497,0.387c0.006,0.007,0.015,0.009,0.031,0.011c0.172,0.047,0.289,0.094,0.357,0.141
		c0.112,0.076,0.167,0.186,0.167,0.324c0,0.154-0.063,0.276-0.184,0.361c-0.114,0.079-0.242,0.118-0.396,0.118
		c-0.174,0-0.315-0.047-0.424-0.136c-0.115-0.092-0.18-0.233-0.194-0.416h0.098C3.432-42.109,3.601-41.959,3.895-41.959z"/>
	<path style="fill:#848181;" d="M4.873-44.063v0.465h0.324v0.09H4.873v1.602H4.774v-2.156H4.873z"/>
	<path style="fill:#848181;" d="M6.071-41.862c-0.236,0-0.418-0.089-0.547-0.265c-0.114-0.16-0.168-0.363-0.168-0.621
		c0-0.256,0.054-0.465,0.168-0.623c0.125-0.179,0.306-0.265,0.547-0.265c0.302,0,0.507,0.143,0.61,0.426v-0.389H6.78v1.691H6.682
		v-0.363C6.579-41.998,6.374-41.862,6.071-41.862z M5.596-42.195c0.108,0.159,0.266,0.241,0.476,0.241
		c0.208,0,0.365-0.082,0.472-0.241c0.093-0.142,0.139-0.324,0.139-0.553c0-0.226-0.045-0.41-0.139-0.554
		c-0.107-0.165-0.264-0.245-0.472-0.245c-0.21,0-0.365,0.08-0.471,0.245c-0.096,0.139-0.144,0.326-0.144,0.554
		C5.456-42.519,5.5-42.336,5.596-42.195z"/>
	<path style="fill:#848181;" d="M7.214-43.598h0.1v0.275c0.103-0.21,0.284-0.313,0.547-0.313c0.371,0,0.558,0.202,0.558,0.608v1.12
		H8.315v-1.089c0-0.177-0.031-0.316-0.094-0.4c-0.07-0.096-0.191-0.146-0.357-0.146c-0.307,0-0.483,0.146-0.535,0.434
		c-0.003,0.033-0.007,0.069-0.012,0.122c-0.001,0.048-0.004,0.104-0.004,0.175v0.903h-0.1V-43.598z"/>
	<path style="fill:#848181;" d="M10.192-41.907h-0.095v-0.372c-0.104,0.273-0.311,0.417-0.613,0.417
		c-0.237,0-0.42-0.089-0.544-0.265c-0.114-0.152-0.171-0.362-0.171-0.621c0-0.256,0.057-0.462,0.171-0.621
		c0.125-0.181,0.308-0.267,0.544-0.267c0.308,0,0.513,0.136,0.613,0.406v-1.02h0.095V-41.907z M9.957-43.301
		c-0.105-0.165-0.265-0.245-0.473-0.245c-0.207,0-0.365,0.08-0.473,0.245c-0.095,0.139-0.142,0.326-0.142,0.554
		c0,0.228,0.047,0.411,0.141,0.553c0.105,0.159,0.267,0.241,0.474,0.241c0.208,0,0.367-0.082,0.473-0.241
		c0.095-0.142,0.141-0.324,0.141-0.553C10.098-42.973,10.052-43.158,9.957-43.301z"/>
	<path style="fill:#848181;" d="M11.273-41.862c-0.238,0-0.419-0.089-0.548-0.265c-0.111-0.16-0.167-0.363-0.167-0.621
		c0-0.256,0.056-0.465,0.167-0.623c0.125-0.179,0.307-0.265,0.548-0.265c0.302,0,0.506,0.143,0.612,0.426v-0.389h0.098v1.691h-0.098
		v-0.363C11.782-41.998,11.577-41.862,11.273-41.862z M10.798-42.195c0.107,0.159,0.268,0.241,0.476,0.241
		c0.206,0,0.364-0.082,0.47-0.241c0.096-0.142,0.143-0.324,0.143-0.553c0-0.226-0.047-0.41-0.143-0.554
		c-0.106-0.165-0.264-0.245-0.47-0.245c-0.208,0-0.366,0.08-0.474,0.245c-0.097,0.139-0.142,0.326-0.142,0.554
		C10.657-42.519,10.703-42.336,10.798-42.195z"/>
	<path style="fill:#848181;" d="M12.417-43.598h0.1v0.275c0.084-0.185,0.262-0.275,0.537-0.271L12.99-43.5
		c-0.075,0-0.133,0.008-0.167,0.017c-0.071,0.021-0.141,0.079-0.217,0.164c-0.061,0.08-0.09,0.174-0.09,0.283v1.13h-0.1V-43.598z"/>
	<path style="fill:#848181;" d="M14.591-41.907h-0.098v-0.372c-0.106,0.273-0.309,0.417-0.613,0.417
		c-0.237,0-0.422-0.089-0.545-0.265c-0.113-0.152-0.17-0.362-0.17-0.621c0-0.256,0.057-0.462,0.17-0.621
		c0.127-0.181,0.311-0.267,0.545-0.267c0.311,0,0.514,0.136,0.613,0.406v-1.02h0.098V-41.907z M14.354-43.301
		c-0.109-0.165-0.266-0.245-0.475-0.245c-0.205,0-0.365,0.08-0.469,0.245c-0.096,0.139-0.145,0.326-0.145,0.554
		c0,0.228,0.048,0.411,0.141,0.553c0.107,0.159,0.267,0.241,0.473,0.241c0.209,0,0.365-0.082,0.475-0.241
		c0.092-0.142,0.139-0.324,0.139-0.553C14.493-42.973,14.446-43.158,14.354-43.301z"/>
	<path style="fill:#848181;" d="M17.192-41.907H17.09v-0.372c-0.104,0.273-0.309,0.417-0.609,0.417
		c-0.238,0-0.422-0.089-0.547-0.265c-0.115-0.152-0.169-0.362-0.169-0.621c0-0.256,0.055-0.462,0.169-0.621
		c0.125-0.181,0.309-0.267,0.547-0.267c0.309,0,0.512,0.136,0.609,0.406v-1.02h0.101V-41.907z M16.95-43.301
		c-0.101-0.165-0.262-0.245-0.469-0.245c-0.209,0-0.367,0.08-0.473,0.245c-0.096,0.139-0.145,0.326-0.145,0.554
		c0,0.228,0.049,0.411,0.141,0.553c0.109,0.159,0.268,0.241,0.477,0.241c0.207,0,0.367-0.082,0.469-0.241
		c0.096-0.142,0.141-0.324,0.141-0.553C17.09-42.973,17.045-43.158,16.95-43.301z"/>
	<path style="fill:#848181;" d="M18.815-41.907h-0.092v-0.264c-0.107,0.207-0.287,0.309-0.551,0.309
		c-0.371,0-0.553-0.203-0.553-0.605v-1.131h0.096v1.101c0,0.178,0.031,0.311,0.096,0.397c0.07,0.095,0.189,0.146,0.355,0.146
		c0.307,0,0.488-0.146,0.537-0.429c0.004-0.035,0.01-0.077,0.014-0.124c0-0.046,0.006-0.109,0.006-0.176v-0.915h0.092V-41.907z"/>
	<path style="fill:#848181;" d="M19.25-43.598h0.105v0.275c0.1-0.21,0.27-0.313,0.498-0.313c0.27,0,0.426,0.114,0.484,0.345
		c0.113-0.23,0.291-0.345,0.531-0.345c0.338,0,0.51,0.202,0.51,0.608v1.12h-0.101v-1.017c0-0.189-0.014-0.324-0.047-0.399
		c-0.062-0.147-0.184-0.219-0.367-0.219c-0.193,0-0.332,0.075-0.412,0.219c-0.059,0.117-0.088,0.285-0.088,0.501v0.915H20.27v-1.017
		c0-0.189-0.02-0.324-0.051-0.399c-0.059-0.147-0.176-0.219-0.367-0.219c-0.279,0-0.436,0.142-0.481,0.43
		c-0.01,0.033-0.012,0.074-0.016,0.125c0,0.048,0,0.103,0,0.165v0.915H19.25V-43.598z"/>
	<path style="fill:#848181;" d="M21.803-43.598h0.105v0.275c0.106-0.21,0.268-0.313,0.502-0.313c0.258,0,0.424,0.114,0.476,0.345
		c0.115-0.23,0.293-0.345,0.533-0.345c0.34,0,0.51,0.202,0.51,0.608v1.12h-0.094v-1.017c0-0.189-0.024-0.324-0.053-0.399
		c-0.057-0.147-0.178-0.219-0.363-0.219c-0.197,0-0.334,0.075-0.416,0.219c-0.055,0.117-0.088,0.285-0.088,0.501v0.915h-0.098
		v-1.017c0-0.189-0.016-0.324-0.047-0.399c-0.059-0.147-0.182-0.219-0.369-0.219c-0.274,0-0.438,0.142-0.484,0.43
		c-0.004,0.033-0.006,0.074-0.01,0.125c0,0.048,0,0.103,0,0.165v0.915h-0.105V-43.598z"/>
	<path style="fill:#848181;" d="M25.229-41.321c-0.098,0.052-0.215,0.074-0.35,0.074c-0.156,0-0.287-0.042-0.383-0.118
		c-0.107-0.089-0.16-0.212-0.162-0.371h0.086c0.006,0.135,0.055,0.239,0.154,0.308c0.082,0.064,0.191,0.094,0.322,0.094
		c0.244,0,0.408-0.094,0.5-0.282c0.018-0.025,0.023-0.05,0.029-0.073c0.014-0.028,0.02-0.057,0.02-0.091
		c0.01-0.044,0.016-0.098,0.016-0.179v-0.261c-0.108,0.214-0.291,0.313-0.553,0.313c-0.365,0-0.557-0.202-0.557-0.604v-1.124h0.101
		v1.092c0,0.178,0.031,0.313,0.096,0.4c0.072,0.095,0.191,0.146,0.359,0.146c0.307,0,0.486-0.146,0.537-0.438
		c0-0.025,0.008-0.072,0.008-0.118c0.008-0.05,0.008-0.107,0.008-0.179v-0.903h0.101v1.694c-0.002,0.032-0.01,0.069-0.01,0.11
		c-0.006,0.036-0.018,0.075-0.023,0.117C25.489-41.532,25.389-41.401,25.229-41.321z"/>
	<path style="fill:#848181;" d="M26.833-44.063v0.465h0.32v0.09h-0.32v1.602h-0.108v-2.156H26.833z"/>
	<path style="fill:#848181;" d="M27.987-41.862c-0.233,0-0.408-0.092-0.527-0.269c-0.109-0.157-0.16-0.364-0.16-0.617
		c0-0.255,0.051-0.458,0.16-0.614c0.119-0.185,0.295-0.273,0.527-0.273c0.229,0,0.4,0.08,0.517,0.244
		c0.109,0.144,0.166,0.343,0.166,0.587v0.063h-1.27v0.029c0,0.205,0.051,0.383,0.141,0.521c0.109,0.155,0.254,0.237,0.445,0.237
		c0.262,0,0.441-0.128,0.533-0.383l0.078,0.047c-0.037,0.116-0.102,0.208-0.193,0.284C28.286-41.913,28.149-41.862,27.987-41.862z
		 M28.561-42.838c0-0.199-0.047-0.358-0.133-0.486c-0.104-0.147-0.242-0.222-0.424-0.222c-0.186,0-0.336,0.072-0.441,0.214
		c-0.094,0.127-0.146,0.295-0.162,0.494H28.561z"/>
	<path style="fill:#848181;" d="M28.784-41.907l0.594-0.87l-0.568-0.821h0.115l0.519,0.732l0.494-0.732h0.115l-0.557,0.821
		l0.594,0.87h-0.109l-0.543-0.79l-0.537,0.79H28.784z"/>
	<path style="fill:#848181;" d="M30.331-44.063v0.465h0.32v0.09h-0.32v1.602h-0.105v-2.156H30.331z"/>
</g>
<g>
	
		<radialGradient id="SVGID_1_" cx="-245.7649" cy="18.4381" r="75.6091" fx="-280.0087" fy="26.5355" gradientTransform="matrix(-0.153 0.0033 6.000000e-04 0.0283 -20.5661 -51.3743)" gradientUnits="userSpaceOnUse">
		<stop  offset="0" style="stop-color:#272727"/>
		<stop  offset="0.0643" style="stop-color:#4C4C4C"/>
		<stop  offset="0.1592" style="stop-color:#7B7B7B"/>
		<stop  offset="0.2572" style="stop-color:#A3A3A3"/>
		<stop  offset="0.3569" style="stop-color:#C5C5C5"/>
		<stop  offset="0.4588" style="stop-color:#DEDEDE"/>
		<stop  offset="0.5637" style="stop-color:#F1F1F1"/>
		<stop  offset="0.6735" style="stop-color:#FBFBFB"/>
		<stop  offset="0.7963" style="stop-color:#FFFFFF"/>
	</radialGradient>
	<path style="opacity:0.77;fill:url(#SVGID_1_);" d="M5.479-51.409c0.024,1.179,5.227,2.022,11.616,1.885
		c6.396-0.136,11.551-1.203,11.521-2.383c-0.021-1.185-5.217-2.034-11.613-1.896C10.613-53.666,5.452-52.595,5.479-51.409z"/>
	<g>
		<path style="fill-rule:evenodd;clip-rule:evenodd;fill:#848181;" d="M19.728-66.418c-1.314-1.285-0.743-3.313,0.856-1.656
			c7.567,7.766,4.912,13.674,1.913,16.046c-0.656,0.514-0.914,0.514-0.315-0.172c2.371-2.57,3.456-7.394-3.712-7.708
			c-1.514-0.143-1.199-1.37,0.257-1.228C21.355-60.852,26.553-60.395,19.728-66.418L19.728-66.418z M20.755-64.877
			c0.515,0.285,0.914,0.629,1.2,0.971c0.199,0.285,0.342,0.571,0.399,0.885c0.114,0.657,0,1.113-0.371,1.428
			c-0.4,0.258-0.914,0.258-1.628,0.029c-0.485-0.172-0.914-0.457-1.257-0.772c-0.114-0.142-0.257-0.314-0.399-0.514
			c-0.371-0.6-0.485-1.199-0.2-1.77c0.058-0.144,0.143-0.258,0.286-0.344C19.185-65.219,19.842-65.219,20.755-64.877L20.755-64.877z
			"/>
		<path style="fill-rule:evenodd;clip-rule:evenodd;fill:#7AAE25;" d="M9.932-62.707c-0.914,1.599-2.998,1.57-1.799-0.399
			c5.512-9.308,11.938-8.279,14.992-5.995c0.686,0.514,0.715,0.77-0.085,0.342c-3.084-1.627-8.054-1.398-6.483,5.596
			c0.229,1.514-1.028,1.514-1.257,0.086C14.901-65.705,13.988-70.872,9.932-62.707L9.932-62.707z M11.161-64.077
			c0.143-0.6,0.371-1.057,0.628-1.428c0.229-0.257,0.457-0.485,0.743-0.6c0.6-0.313,1.084-0.285,1.484-0.028
			c0.343,0.314,0.485,0.799,0.457,1.57c-0.057,0.514-0.2,0.999-0.428,1.398c-0.115,0.172-0.228,0.343-0.4,0.514
			c-0.485,0.543-1.028,0.8-1.656,0.657c-0.143-0.028-0.285-0.058-0.4-0.2C11.247-62.478,11.075-63.135,11.161-64.077L11.161-64.077z
			"/>
		<path style="fill-rule:evenodd;clip-rule:evenodd;fill:#3976CF;" d="M18.999-57.349c1.684-0.742,3.37,0.486,1.257,1.4
			c-9.938,4.311-14.536-0.287-15.679-3.912c-0.256-0.828-0.143-1.057,0.258-0.229c1.57,3.111,5.711,5.853,8.538-0.742
			c0.685-1.369,1.714-0.627,1.085,0.656C13.23-57.806,10.974-53.095,18.999-57.349L18.999-57.349z M17.228-56.949
			c-0.485,0.4-0.914,0.656-1.371,0.771c-0.313,0.113-0.628,0.143-0.942,0.084c-0.686-0.113-1.057-0.398-1.199-0.855
			c-0.114-0.457,0.057-0.941,0.543-1.54c0.342-0.4,0.742-0.686,1.171-0.887c0.171-0.084,0.371-0.143,0.6-0.199
			c0.714-0.143,1.313,0,1.742,0.458c0.114,0.086,0.171,0.199,0.199,0.4C18.084-58.29,17.856-57.664,17.228-56.949L17.228-56.949z"/>
	</g>
</g>
<g>
	<path style="fill:#7AAE25;" d="M-2.388-47.096c0-0.925,0.391-1.586,0.846-1.963c0.448-0.362,1.024-0.576,1.699-0.576
		c0.349,0,0.626,0.05,0.782,0.136c0.028,0.014,0.036,0.035,0.036,0.071l0.078,0.995c0.007,0.035-0.064,0.078-0.1,0.078
		c-0.007,0-0.014,0-0.028-0.021c-0.135-0.299-0.291-0.647-0.405-0.882c-0.029-0.057-0.064-0.106-0.107-0.142
		c-0.042-0.043-0.135-0.093-0.277-0.093c-0.277,0-0.583,0.156-0.832,0.434c-0.376,0.448-0.568,1.074-0.568,1.878
		c0,1.223,0.675,1.721,1.322,1.721c0.135,0,0.313-0.021,0.413-0.043c0.199-0.036,0.398-0.106,0.619-0.192
		c0.021-0.007,0.035,0.021,0.035,0.093c0,0.022-0.007,0.035-0.021,0.05C0.94-45.468,0.563-45.297,0.3-45.219
		c-0.128,0.036-0.377,0.078-0.611,0.078c-1.124,0-2.076-0.519-2.076-1.948V-47.096z"/>
	<path style="fill:#7AAE25;" d="M3.106-45.141c-1.003,0-1.557-0.611-1.557-1.521c0-0.953,0.597-1.827,1.913-1.827
		c1.116,0,1.586,0.711,1.586,1.557c0,0.938-0.633,1.792-1.934,1.792H3.106z M3.327-45.276c0.505,0,0.654-0.654,0.654-1.558
		c0-0.817-0.199-1.521-0.683-1.521c-0.469,0-0.69,0.626-0.69,1.571c0,0.818,0.256,1.508,0.711,1.508H3.327z"/>
	<path style="fill:#7AAE25;" d="M9.554-45.276c0.021,0,0.036,0.05,0.036,0.078c0,0.007,0,0.015-0.014,0.015
		c-0.242-0.008-0.491-0.015-0.903-0.015c-0.405,0-0.711,0.007-0.889,0.015c-0.014,0-0.021-0.008-0.021-0.015
		c0-0.021,0.014-0.078,0.036-0.078l0.341-0.078c0.057-0.015,0.078-0.043,0.085-0.1c0.014-0.15,0.036-0.704,0.036-1.031
		c0-0.618-0.085-1.337-0.484-1.337c-0.341,0-0.689,0.541-0.903,1.408c-0.057,0.249-0.114,0.704-0.107,0.967
		c0,0.064,0.022,0.086,0.064,0.093l0.348,0.078c0.021,0,0.036,0.05,0.036,0.078c0,0.007-0.007,0.015-0.022,0.015
		c-0.277-0.008-0.505-0.015-0.889-0.015s-0.654,0.007-0.868,0.015c-0.014,0-0.014-0.008-0.014-0.015
		c0-0.028,0.014-0.078,0.036-0.085l0.363-0.065c0.043-0.014,0.064-0.035,0.064-0.1c0-0.213-0.014-1.045-0.014-1.358
		c-0.007-0.241-0.029-1.038-0.036-1.223c-0.007-0.063-0.007-0.106-0.071-0.113l-0.313-0.021c-0.021,0-0.043-0.05-0.043-0.086
		c0-0.014,0-0.022,0.022-0.022l1.379-0.22c0.043-0.007,0.057,0.014,0.057,0.057c-0.007,0.1-0.043,1.003-0.057,1.387
		c0,0.071-0.007,0.163-0.014,0.241l0.036,0.008c0.021-0.071,0.049-0.164,0.064-0.199c0.199-0.633,0.739-1.493,1.436-1.493
		c0.569,0,0.86,0.533,0.86,1.521c0,0.526-0.05,1.188-0.078,1.486c-0.007,0.071,0.007,0.107,0.078,0.121L9.554-45.276z"/>
	<path style="fill:#7AAE25;" d="M9.957-47.38c0-0.548,0.725-1.109,1.756-1.109c0.313,0,0.54,0.035,0.647,0.085
		c0.021,0.021,0.036,0.036,0.036,0.064l0.064,0.725c0,0.029-0.064,0.071-0.093,0.071c-0.014,0-0.021,0-0.028-0.021
		c-0.106-0.178-0.206-0.355-0.313-0.54c-0.035-0.05-0.071-0.085-0.121-0.121c-0.092-0.057-0.256-0.1-0.455-0.1
		c-0.349,0-0.619,0.221-0.619,0.505s0.192,0.434,0.718,0.626c0.668,0.228,1.017,0.462,1.017,0.917c0,0.676-0.739,1.138-1.891,1.138
		c-0.149,0-0.498-0.028-0.64-0.085c-0.028-0.015-0.042-0.028-0.05-0.071l-0.057-0.739c0-0.036,0.071-0.064,0.093-0.064
		c0.007,0,0.022,0,0.028,0.015c0.1,0.178,0.206,0.384,0.32,0.562c0.036,0.057,0.079,0.085,0.128,0.121
		c0.078,0.05,0.27,0.106,0.448,0.106c0.427,0,0.768-0.185,0.768-0.519c0-0.307-0.207-0.455-0.782-0.647
		c-0.704-0.221-0.974-0.483-0.974-0.91V-47.38z"/>
	<path style="fill:#7AAE25;" d="M15.238-48.199c-0.022,0-0.043-0.042-0.043-0.071c0-0.014,0-0.028,0.021-0.035l1.266-0.178
		c0.035-0.007,0.057,0.015,0.057,0.057c-0.007,0.264,0,1.352,0,1.636c0,0.334,0.021,1.131,0.035,1.315
		c0.008,0.064,0.022,0.1,0.086,0.114l0.271,0.07c0.021,0.008,0.035,0.064,0.035,0.086c0,0.007,0,0.014-0.021,0.014
		c-0.185-0.007-0.412-0.007-0.69-0.007c-0.242,0-0.47,0-0.612,0.007c-0.029,0-0.043-0.021-0.043-0.071c0-0.085-0.007-0.675,0-0.945
		v-0.221h-0.035c-0.029,0.078-0.043,0.143-0.064,0.186c-0.285,0.696-0.704,1.102-1.301,1.102c-0.512,0-0.932-0.419-0.932-1.465
		c0-0.505,0.057-1.116,0.1-1.45c0.007-0.085-0.014-0.121-0.078-0.121h-0.299c-0.028,0-0.057-0.057-0.057-0.093
		c0-0.014,0.007-0.02,0.029-0.02l1.258-0.192c0.043-0.007,0.057,0.015,0.057,0.064c-0.007,0.227-0.043,1.052-0.043,1.394
		c0,0.974,0.135,1.4,0.469,1.4c0.427,0,0.782-0.733,0.889-1.692c0.021-0.185,0.036-0.576,0.036-0.711
		c0-0.093-0.022-0.135-0.071-0.143L15.238-48.199z"/>
	<path style="fill:#7AAE25;" d="M18.514-50.026c0.042-0.007,0.057,0.007,0.057,0.057c0,0.093-0.05,1.493-0.064,2.318
		c-0.007,0.512-0.035,2.076-0.035,2.211c0,0.065,0.021,0.079,0.071,0.093l0.37,0.065c0.021,0,0.042,0.05,0.042,0.085
		c0,0.007,0,0.015-0.014,0.015c-0.186-0.008-0.526-0.015-0.946-0.015c-0.391,0-0.696,0.007-0.846,0.015
		c-0.015,0-0.021-0.008-0.021-0.021c0-0.022,0.014-0.071,0.043-0.078l0.348-0.065c0.05-0.014,0.078-0.028,0.078-0.085
		c0.015-0.199-0.021-1.898-0.021-2.147c0-0.256-0.036-1.764-0.043-2.056c0-0.063-0.022-0.099-0.085-0.099l-0.42-0.021
		c-0.028,0-0.057-0.05-0.057-0.086c0-0.014,0-0.028,0.021-0.028L18.514-50.026z"/>
	<path style="fill:#7AAE25;" d="M20.667-48.127c-0.035,0.455-0.042,1.024-0.042,1.486c0,0.903,0.213,1.223,0.711,1.223
		c0.063,0,0.156-0.007,0.234-0.014c0.078-0.008,0.221-0.043,0.377-0.1c0.021-0.008,0.028,0.028,0.028,0.078
		c0,0.028-0.015,0.043-0.028,0.05c-0.143,0.071-0.448,0.199-0.726,0.249c-0.078,0.007-0.185,0.014-0.341,0.014
		c-0.782,0-1.266-0.284-1.273-1.315c0-0.477,0.058-1.18,0.121-1.671l-0.611,0.022c-0.015,0-0.028-0.007-0.028-0.028
		s0.007-0.078,0.022-0.121c0.02-0.093,0.078-0.121,0.142-0.121h0.505c0.021-0.12,0.058-0.405,0.1-0.575
		c0.036-0.136,0.106-0.229,0.334-0.327c0.199-0.086,0.513-0.214,0.555-0.214c0.028,0,0.043,0.022,0.036,0.064
		c-0.028,0.234-0.086,0.803-0.1,1.066l1.244,0.007c0.007,0,0.015,0.007,0.015,0.021c0,0.05-0.029,0.113-0.05,0.113L20.667-48.127z"
		/>
	<path style="fill:#7AAE25;" d="M24.278-47.103c-0.007-0.149-0.035-0.313-0.065-0.434c-0.085-0.326-0.284-0.597-0.625-0.597
		c-0.342,0-0.661,0.149-1.031,0.469c-0.007,0.008-0.015,0.015-0.021,0.015c-0.021,0-0.078-0.085-0.043-0.121
		c0.398-0.419,0.925-0.718,1.664-0.718c0.953,0,1.103,0.804,1.103,1.521c0,0.135-0.015,0.54-0.028,0.782
		c-0.015,0.32-0.028,0.633-0.028,0.746c0,0.05,0.014,0.071,0.07,0.086l0.299,0.071c0.028,0.014,0.043,0.042,0.043,0.07
		c0,0.015-0.007,0.021-0.028,0.021c-0.086-0.007-0.377-0.007-0.654-0.007c-0.242,0-0.392,0-0.512,0.007
		c-0.021,0-0.036-0.007-0.036-0.035c-0.007-0.057-0.021-0.313-0.021-0.47c0-0.035-0.007-0.142-0.007-0.199l-0.021-0.014
		c-0.028,0.057-0.064,0.121-0.1,0.178c-0.178,0.271-0.533,0.59-1.13,0.59c-0.463,0-0.946-0.306-0.946-0.952
		c0-0.641,0.412-1.302,1.33-1.302c0.284,0,0.512,0.1,0.618,0.185c0.043,0.029,0.1,0.071,0.143,0.114L24.278-47.103z M23.638-45.503
		c0.277,0,0.533-0.271,0.668-0.661c0.028-0.078,0.05-0.171,0.05-0.256c0-0.078-0.021-0.171-0.063-0.271
		c-0.093-0.242-0.314-0.526-0.619-0.526c-0.362,0-0.526,0.462-0.526,0.946c0,0.497,0.199,0.767,0.483,0.767H23.638z"/>
	<path style="fill:#7AAE25;" d="M29.963-45.276c0.021,0,0.036,0.05,0.036,0.078c0,0.007,0,0.015-0.015,0.015
		c-0.241-0.008-0.49-0.015-0.902-0.015c-0.405,0-0.712,0.007-0.89,0.015c-0.014,0-0.021-0.008-0.021-0.015
		c0-0.021,0.014-0.078,0.035-0.078l0.342-0.078c0.057-0.015,0.078-0.043,0.085-0.1c0.014-0.15,0.035-0.704,0.035-1.031
		c0-0.618-0.085-1.337-0.483-1.337c-0.341,0-0.69,0.541-0.903,1.408c-0.057,0.249-0.113,0.704-0.107,0.967
		c0,0.064,0.021,0.086,0.064,0.093l0.349,0.078c0.021,0,0.035,0.05,0.035,0.078c0,0.007-0.007,0.015-0.021,0.015
		c-0.277-0.008-0.505-0.015-0.889-0.015c-0.384,0-0.654,0.007-0.867,0.015c-0.015,0-0.015-0.008-0.015-0.015
		c0-0.028,0.015-0.078,0.035-0.085l0.363-0.065c0.043-0.014,0.064-0.035,0.064-0.1c0-0.213-0.014-1.045-0.014-1.358
		c-0.007-0.241-0.028-1.038-0.036-1.223c-0.007-0.063-0.007-0.106-0.07-0.113l-0.314-0.021c-0.021,0-0.042-0.05-0.042-0.086
		c0-0.014,0-0.022,0.021-0.022l1.38-0.22c0.043-0.007,0.057,0.014,0.057,0.057c-0.007,0.1-0.043,1.003-0.057,1.387
		c0,0.071-0.007,0.163-0.015,0.241l0.036,0.008c0.021-0.071,0.05-0.164,0.063-0.199c0.199-0.633,0.74-1.493,1.437-1.493
		c0.569,0,0.86,0.533,0.86,1.521c0,0.526-0.05,1.188-0.078,1.486c-0.007,0.071,0.007,0.107,0.078,0.121L29.963-45.276z"/>
	<path style="fill:#7AAE25;" d="M30.317-46.57c0-0.591,0.277-1.131,0.719-1.472c0.362-0.292,0.81-0.448,1.365-0.448
		c0.299,0,0.498,0.035,0.611,0.085c0.021,0.007,0.035,0.028,0.035,0.064l0.043,0.768c0,0.021-0.063,0.057-0.085,0.057
		c-0.015,0-0.021,0-0.028-0.014c-0.107-0.206-0.221-0.434-0.32-0.604c-0.028-0.057-0.065-0.106-0.128-0.149
		c-0.064-0.05-0.156-0.065-0.249-0.065c-0.256,0-0.49,0.207-0.683,0.619c-0.135,0.277-0.213,0.646-0.213,1.053
		c0,0.831,0.434,1.223,0.952,1.223c0.1,0,0.242-0.015,0.363-0.043c0.199-0.043,0.341-0.1,0.469-0.163
		c0.015-0.008,0.036,0.021,0.036,0.064c0,0.028-0.008,0.05-0.029,0.057c-0.135,0.086-0.397,0.221-0.711,0.327
		c-0.12,0.043-0.256,0.071-0.59,0.071c-0.867,0-1.558-0.377-1.558-1.422V-46.57z"/>
	<path style="fill:#7AAE25;" d="M37.064-48.433c0.022,0,0.022,0.007,0.022,0.021c0,0.035-0.015,0.085-0.043,0.093l-0.114,0.035
		c-0.063,0.014-0.1,0.035-0.135,0.121c-0.178,0.497-0.875,2.111-1.309,2.858c-0.341,0.555-0.988,1.472-1.664,1.472
		c-0.206,0-0.27-0.035-0.284-0.078L33.402-44.7c-0.007-0.021,0.057-0.078,0.085-0.078c0.008,0,0.015,0,0.021,0.007l0.206,0.341
		c0.078,0.114,0.149,0.149,0.271,0.149c0.199,0,0.633-0.17,0.932-0.611c0.028-0.035,0.035-0.078,0.007-0.135
		c-0.271-0.611-0.995-2.354-1.266-3.15c-0.021-0.043-0.043-0.085-0.085-0.093l-0.186-0.049c-0.028-0.008-0.042-0.05-0.042-0.093
		c0-0.015,0-0.021,0.028-0.021h1.806c0.021,0,0.021,0.007,0.021,0.021c0,0.035-0.021,0.085-0.05,0.093l-0.263,0.049
		c-0.05,0.008-0.078,0.05-0.064,0.108c0.142,0.505,0.441,1.571,0.619,2.168c0.014,0.043,0.035,0.114,0.057,0.192h0.035
		c0.036-0.085,0.071-0.163,0.078-0.206c0.214-0.611,0.505-1.621,0.576-2.147c0.015-0.085-0.007-0.106-0.063-0.121l-0.299-0.042
		c-0.028-0.008-0.043-0.05-0.043-0.093c0-0.015,0-0.021,0.021-0.021H37.064z"/>
</g>
</svg>
